<svg width="125" height="129" viewBox="0 0 125 129" fill="none" xmlns="http://www.w3.org/2000/svg">
<path d="M76.8213 59.9677L76.7879 59.9657L76.7544 59.9682C76.4623 59.9897 76.1584 60.0066 75.848 60.0238C75.1762 60.0611 74.4744 60.1001 73.7979 60.1918L73.7978 60.1918C69.9905 60.7091 66.6179 62.2215 63.8598 64.9652C63.616 65.1891 63.4192 65.4594 63.2812 65.7604C63.1415 66.065 63.0648 66.3946 63.0556 66.7296C63.0465 67.0646 63.1051 67.3979 63.228 67.7097C63.3507 68.021 63.535 68.3044 63.7698 68.5429C64.7156 69.507 66.1313 69.4564 67.2092 68.624L67.21 68.6234C67.3111 68.545 67.4052 68.4626 67.4893 68.388C67.5054 68.3737 67.5211 68.3597 67.5364 68.3461C67.6043 68.2856 67.6653 68.2313 67.7285 68.1786L67.7286 68.1787L67.7351 68.173C70.1036 66.1287 73.1305 65.0082 76.2592 65.0177C79.3876 65.0271 82.4074 66.1656 84.7634 68.2237C85.4296 68.8105 86.1237 69.1963 86.8217 69.2633C87.5514 69.3334 88.2036 69.0478 88.7314 68.4641C89.248 67.893 89.5003 67.2263 89.383 66.5046C89.2696 65.8074 88.8252 65.149 88.1491 64.5373C84.9309 61.616 81.0986 60.2259 76.8213 59.9677Z" fill="#C9DAE4" stroke="#E4EEF8"/>
<path d="M83.5689 45.4147C83.3665 45.6007 83.1704 45.7796 82.9799 45.9534C82.2835 46.5889 81.662 47.156 81.0763 47.7491C80.5375 48.2922 80.2047 48.9204 80.1549 49.5777C80.1043 50.2451 80.3508 50.8783 80.8496 51.4007C81.3549 51.93 82.0026 52.2002 82.6917 52.1646C83.3724 52.1294 84.0388 51.7995 84.6122 51.2343C84.6124 51.2341 84.6126 51.2339 84.6128 51.2337L83.5689 45.4147ZM83.5689 45.4147C83.3863 45.2486 83.2068 45.0863 83.0302 44.9267C82.3826 44.3412 81.7748 43.7918 81.2005 43.2224L81.199 43.2209C80.6063 42.6282 80.2424 41.9492 80.1816 41.2546C80.1196 40.5468 80.3784 39.8802 80.9211 39.3572C81.4468 38.8506 82.0729 38.5882 82.7584 38.649C83.4261 38.7081 84.0706 39.067 84.6698 39.6353L84.6699 39.6354C85.1278 40.0698 85.5903 40.5205 86.0506 40.9689C86.3835 41.2933 86.7153 41.6165 87.0432 41.9316C87.1922 41.7703 87.3439 41.6046 87.4983 41.4361C88.0634 40.8189 88.6633 40.1637 89.2912 39.5485L89.2914 39.5483C89.8519 38.9998 90.4852 38.6724 91.1446 38.6371C91.8123 38.6013 92.4315 38.8694 92.9412 39.3663L92.5921 39.7243L92.9412 39.3663C93.4526 39.865 93.7347 40.4847 93.7155 41.1542C93.6964 41.8174 93.384 42.4601 92.8419 43.0224C92.264 43.6217 91.6465 44.1972 90.9552 44.8414C90.7283 45.0529 90.4935 45.2717 90.2495 45.5012C90.3791 45.6115 90.5078 45.7205 90.6354 45.8286C91.3877 46.466 92.1046 47.0733 92.7644 47.7331C93.3473 48.316 93.6927 48.9754 93.7223 49.6588C93.7523 50.3518 93.4537 50.9853 92.9146 51.4932C92.4069 51.9762 91.773 52.2082 91.1103 52.1608C90.4545 52.114 89.8139 51.7977 89.2622 51.2662C88.6302 50.6574 88.0358 50.0086 87.3821 49.2952C87.234 49.1336 87.0828 48.9686 86.9274 48.7999" fill="#C9DAE4" stroke="#E4EEF8"/>
<path d="M67.7883 51.195L67.786 51.1928C67.3673 50.7921 66.9471 50.3793 66.5431 49.9461C66.2793 49.6633 66.0238 49.3632 65.744 49.0344C65.7054 48.9892 65.6664 48.9433 65.6269 48.8969C64.8177 49.6943 64.0918 50.4093 63.3606 51.1189M67.7883 51.195L63.012 50.7605M67.7883 51.195C68.3632 51.7384 69.0143 52.0856 69.6845 52.1498C70.3699 52.2154 71.0204 51.9786 71.5479 51.4576C72.0655 50.9465 72.3388 50.3068 72.2988 49.6178C72.2593 48.938 71.9191 48.2771 71.3418 47.6957M67.7883 51.195L71.3418 47.6957M63.3606 51.1189C63.3605 51.1191 63.3603 51.1192 63.3602 51.1194L63.012 50.7605M63.3606 51.1189C63.3607 51.1189 63.3608 51.1188 63.3608 51.1187L63.012 50.7605M63.3606 51.1189C62.757 51.7068 62.0787 52.0718 61.3882 52.1386C60.6826 52.2069 60.0204 51.9571 59.4975 51.4233C58.9752 50.89 58.7392 50.2268 58.8183 49.5246C58.8957 48.8382 59.267 48.1677 59.8532 47.5697L59.8567 47.5662L59.8567 47.5662C60.3972 47.0257 60.9554 46.496 61.5535 45.9283C61.7373 45.7537 61.925 45.5756 62.1171 45.3925M63.012 50.7605C61.9169 51.8272 60.7009 51.9374 59.8547 51.0734C59.0085 50.2094 59.1437 49.0077 60.2103 47.9198C60.7463 47.3837 61.2964 46.8616 61.8913 46.297C62.0835 46.1145 62.2804 45.9277 62.4831 45.7344C62.3598 45.6186 62.2378 45.5047 62.1171 45.3925M62.1171 45.3925C62.236 45.2791 62.3566 45.1638 62.4791 45.0463C62.2898 44.8701 62.1046 44.699 61.9231 44.5312C61.2761 43.9332 60.6765 43.379 60.1036 42.7964M62.1171 45.3925C61.9401 45.2279 61.7658 45.0668 61.5942 44.9081C60.9423 44.3056 60.3285 43.7383 59.7471 43.1469M59.7471 43.1469C59.7473 43.1471 59.7474 43.1473 59.7476 43.1475L60.1036 42.7964M59.7471 43.1469L60.1036 42.7964M59.7471 43.1469C59.1796 42.5712 58.8381 41.912 58.7877 41.2354C58.7365 40.5485 58.9904 39.9016 59.504 39.3859C60.0088 38.879 60.6391 38.6017 61.3262 38.6414C62.0043 38.6805 62.6645 39.0239 63.2547 39.6121L63.2553 39.6127C63.8218 40.1793 64.365 40.7848 64.9434 41.4296C65.1223 41.629 65.3045 41.8321 65.4918 42.039M60.1036 42.7964C59.0903 41.7689 59.0192 40.5814 59.8583 39.7387C60.6974 38.8961 61.8422 38.9103 62.9017 39.9663M62.9017 39.9663C63.459 40.5235 63.9867 41.1119 64.5589 41.7498C64.7486 41.9613 64.9432 42.1783 65.1453 42.4013C65.2629 42.2791 65.3783 42.1584 65.4918 42.039M62.9017 39.9663L62.9018 39.9663L62.9017 39.9663ZM65.4918 42.039C65.6025 42.1612 65.7149 42.2847 65.8295 42.4096L68.2135 39.9272M65.4918 42.039C65.7237 41.7952 65.9477 41.5571 66.1666 41.3245C66.7519 40.7025 67.3006 40.1194 67.864 39.5696M67.864 39.5696C67.8641 39.5695 67.8642 39.5694 67.8644 39.5693L68.2135 39.9272M67.864 39.5696C67.8639 39.5697 67.8639 39.5698 67.8638 39.5699L68.2135 39.9272M67.864 39.5696C68.4233 39.0223 69.0471 38.6798 69.7013 38.6283C70.3686 38.5757 70.9878 38.8322 71.5063 39.3273C72.0333 39.8306 72.311 40.4684 72.2851 41.1557C72.2595 41.8341 71.9411 42.5016 71.3916 43.0911L71.3908 43.092C70.9582 43.5537 70.5023 43.9985 70.0532 44.4299C69.7008 44.7682 69.3853 45.0675 68.9436 45.4755M68.2135 39.9272C69.2233 38.9388 70.2935 38.8605 71.161 39.6889C72.0285 40.5174 72.0036 41.7013 71.0259 42.7502C70.6028 43.2017 70.1548 43.639 69.7068 44.0692C69.3483 44.4135 69.0285 44.7168 68.5725 45.1377C68.6974 45.2522 68.8211 45.3647 68.9436 45.4755M68.9436 45.4755C69.1217 45.6366 69.2971 45.7943 69.4699 45.9495C70.1333 46.5456 70.7577 47.1066 71.3418 47.6957M68.9436 45.4755C68.8297 45.5807 68.7074 45.6932 68.574 45.8154C68.7699 45.9928 68.9613 46.1648 69.1486 46.3331C69.8059 46.9237 70.413 47.4691 70.9868 48.0478M71.3418 47.6957L65.984 48.545C66.0355 48.6054 66.0858 48.6645 66.135 48.7224C66.4093 49.0447 66.6523 49.3301 66.9087 49.605C67.3034 50.0281 67.7158 50.4334 68.1318 50.8317C69.17 51.8129 70.3397 51.9481 71.1966 51.1019C72.0534 50.2557 72.0179 49.0859 70.9868 48.0478M71.3418 47.6957L70.9868 48.0478M71.3418 47.6957C71.3417 47.6956 71.3416 47.6955 71.3416 47.6954L70.9868 48.0478" fill="#C9DAE4" stroke="#E4EEF8"/>
<path d="M52.9905 94.6891C52.219 102.273 44.8522 106.938 37.3076 103.606C37.0622 103.962 36.8027 104.371 36.5467 104.765C32.81 110.546 29.155 116.384 25.308 122.091C22.037 126.94 17.3296 128.963 11.5698 127.893C6.0376 126.866 2.50351 123.392 1.04934 117.974C-0.440384 112.427 1.87064 106.657 6.73802 103.467C12.3876 99.7699 18.0727 96.1255 23.7401 92.4457C24.22 92.1328 24.6929 91.8164 25.1622 91.5106C21.8841 84.1651 26.2964 76.6809 34.1219 75.7672C27.4804 62.9961 26.3 49.7663 31.1105 36.1953C34.8721 25.6108 41.7234 17.3835 51.3124 11.5313C70.7286 -0.326062 95.6165 3.16181 111.399 19.8759C126.57 35.9322 128.419 61.1792 115.964 79.5537C109.199 89.4193 99.017 96.4269 87.3858 99.2224C75.7547 102.018 63.5002 100.403 52.9905 94.6891ZM118.901 52.6107C118.951 29.0702 99.9364 10.0131 76.307 9.92423C52.7843 9.83535 33.7308 28.8 33.5708 52.4685C33.4144 75.9592 52.6315 95.2225 76.2359 95.2296C87.5451 95.2352 98.3935 90.7483 106.395 82.7558C114.396 74.7633 118.894 63.9199 118.901 52.6107ZM28.5328 95.7344C28.099 96.0118 27.5764 96.3389 27.0573 96.6731C21.3224 100.381 15.5519 104.061 9.86324 107.805C5.59673 110.614 4.68298 116.018 7.78331 119.84C11.2925 124.174 17.7812 123.805 20.9384 119.015C24.348 113.878 27.6581 108.673 31.0109 103.496C31.722 102.387 32.4331 101.27 33.0695 100.296L28.5328 95.7344ZM47.9063 93.9958C47.3801 92.8616 47.085 91.507 46.2779 90.636C43.6931 87.8343 40.9768 85.1428 38.1929 82.5367C37.158 81.6379 35.8141 81.1768 34.4454 81.2509C33.0768 81.325 31.7905 81.9284 30.8587 82.9337C29.9269 83.9389 29.4225 85.2671 29.4523 86.6375C29.482 88.0079 30.0435 89.313 31.018 90.2769C33.5234 92.7941 36.0324 95.3054 38.5449 97.8108C39.2707 98.5689 40.2081 99.0907 41.2349 99.3083C42.2617 99.5258 43.3302 99.4289 44.3011 99.0303C46.2886 98.2268 47.5827 96.3069 47.9063 93.9958Z" fill="#C9DAE4"/>
<path d="M106.041 8.16792C105.249 8.17987 104.472 7.95649 103.808 7.52612C103.144 7.09575 102.622 6.47776 102.309 5.75055C101.997 5.02333 101.907 4.21965 102.052 3.44141C102.196 2.66317 102.569 1.94545 103.122 1.37926C103.675 0.813067 104.384 0.423921 105.159 0.261166C105.934 0.0984115 106.739 0.16938 107.473 0.465076C108.208 0.760772 108.838 1.26787 109.283 1.92207C109.729 2.57626 109.97 3.34807 109.977 4.13963C109.973 5.19081 109.559 6.19908 108.825 6.95096C108.09 7.70284 107.092 8.1393 106.041 8.16792Z" fill="#C9DAE4"/>
<path d="M7.48042 29.5218C8.27135 29.5604 9.03298 29.8332 9.66863 30.3054C10.3043 30.7777 10.7853 31.4281 11.0506 32.1742C11.316 32.9203 11.3537 33.7285 11.159 34.496C10.9642 35.2636 10.5459 35.956 9.95693 36.4854C9.36801 37.0147 8.63509 37.3572 7.85119 37.4693C7.06728 37.5815 6.26775 37.4582 5.55404 37.1151C4.84033 36.772 4.24464 36.2247 3.84255 35.5425C3.44047 34.8603 3.25013 34.074 3.29568 33.2834C3.36879 32.236 3.84622 31.258 4.6271 30.556C5.40797 29.8541 6.43114 29.4832 7.48042 29.5218Z" fill="#C9DAE4"/>
<path d="M77.961 116.132C77.9709 116.924 77.7453 117.701 77.3128 118.364C76.8804 119.028 76.2606 119.548 75.5321 119.858C74.8036 120.169 73.9993 120.256 73.2213 120.108C72.4432 119.961 71.7265 119.586 71.1621 119.03C70.5976 118.475 70.2109 117.764 70.051 116.989C69.8912 116.213 69.9653 115.407 70.2641 114.674C70.5628 113.941 71.0728 113.313 71.7291 112.87C72.3855 112.427 73.1586 112.188 73.9505 112.186C75.001 112.193 76.0073 112.609 76.7561 113.346C77.5048 114.082 77.937 115.082 77.961 116.132Z" fill="#C9DAE4"/>
<path d="M24.6807 2.85611C25.2086 2.86726 25.7212 3.03551 26.1531 3.33937C26.5849 3.64323 26.9163 4.06892 27.1051 4.56206C27.2938 5.0552 27.3313 5.59341 27.2127 6.10794C27.0941 6.62248 26.8248 7.08998 26.4393 7.45075C26.0537 7.81152 25.5694 8.04917 25.0481 8.13336C24.5268 8.21754 23.9923 8.14443 23.5128 7.92338C23.0332 7.70232 22.6305 7.34335 22.356 6.8923C22.0814 6.44126 21.9476 5.91862 21.9715 5.39113C22.0099 4.70107 22.313 4.05241 22.8176 3.58021C23.3223 3.108 23.9896 2.84864 24.6807 2.85611Z" fill="#C9DAE4"/>
<path d="M120.749 16.1818C121.277 16.2027 121.787 16.3805 122.214 16.6926C122.641 17.0048 122.965 17.437 123.145 17.9341C123.324 18.4313 123.352 18.9708 123.224 19.4837C123.096 19.9967 122.818 20.4598 122.425 20.8139C122.033 21.1681 121.543 21.3971 121.02 21.4719C120.497 21.5467 119.963 21.4638 119.487 21.2337C119.011 21.0037 118.614 20.637 118.347 20.1804C118.081 19.7239 117.956 19.1983 117.99 18.6706C118.041 17.9803 118.356 17.3363 118.87 16.8727C119.384 16.4091 120.057 16.1616 120.749 16.1818Z" fill="#C9DAE4"/>
<path d="M13.9436 64.141C13.9514 64.67 13.8012 65.1892 13.5123 65.6324C13.2234 66.0755 12.8089 66.4224 12.3218 66.6288C11.8347 66.8351 11.2971 66.8915 10.7778 66.7907C10.2585 66.6899 9.78105 66.4366 9.40649 66.063C9.03192 65.6895 8.77727 65.2127 8.67509 64.6937C8.5729 64.1746 8.62784 63.6369 8.83286 63.1493C9.03788 62.6616 9.38367 62.2462 9.82603 61.9561C10.2684 61.666 10.7872 61.5144 11.3162 61.5207C12.007 61.536 12.6654 61.8168 13.1546 62.3047C13.6439 62.7927 13.9264 63.4503 13.9436 64.141Z" fill="#C9DAE4"/>
<path d="M120.614 117.504C120.086 117.498 119.573 117.334 119.138 117.034C118.704 116.734 118.369 116.311 118.176 115.819C117.983 115.328 117.941 114.79 118.055 114.275C118.169 113.759 118.434 113.29 118.816 112.926C119.199 112.561 119.681 112.32 120.201 112.231C120.722 112.142 121.257 112.21 121.738 112.427C122.22 112.644 122.625 112.999 122.904 113.447C123.183 113.896 123.321 114.417 123.302 114.945C123.271 115.636 122.974 116.288 122.473 116.765C121.972 117.242 121.306 117.507 120.614 117.504Z" fill="#C9DAE4"/>
<path d="M39.7969 52.1662C39.8289 32.4016 56.2941 16.1746 76.2969 16.1924C81.0762 16.2015 85.8068 17.1519 90.2188 18.9892C94.6307 20.8266 98.6376 23.5149 102.011 26.9008C105.384 30.2867 108.057 34.3037 109.877 38.7227C111.698 43.1416 112.63 47.8758 112.621 52.6551C112.612 57.4343 111.661 62.165 109.824 66.5769C107.987 70.9889 105.298 74.9957 101.913 78.3687C98.5267 81.7417 94.5096 84.4148 90.0907 86.2353C85.6717 88.0559 80.9375 88.9882 76.1583 88.9791C55.9243 88.9613 39.7649 72.5992 39.7969 52.1662ZM107.307 52.6568C107.326 46.5085 105.519 40.4929 102.117 35.3715C98.715 30.2502 93.8699 26.2534 88.1951 23.887C82.5203 21.5206 76.271 20.8911 70.2383 22.078C64.2055 23.265 58.6605 26.2151 54.3053 30.555C49.95 34.8949 46.9801 40.4293 45.7718 46.4578C44.5634 52.4863 45.1707 58.7378 47.5169 64.4209C49.8631 70.1041 53.8427 74.9634 58.9519 78.3837C64.0612 81.8041 70.0703 83.6317 76.2187 83.6353C84.448 83.6457 92.3449 80.3887 98.1742 74.58C104.004 68.7714 107.289 60.8861 107.307 52.6568Z" fill="#C9DAE4"/>
</svg>
